#!OML:ASF I:\Actors\actors\Patient Classification 1\Patient 1\Session 1\Subject1.ASF
:FULLY-SPECIFIED
:DEGREES
2602
root -0.00759361 17.4329 8.51772 7.3776 0.297349 -9.68282
lowerback -2.60609 1.77916 5.57748
upperback -9.64586 2.74153 2.90675
thorax -8.61356 1.06574 -0.163352
lowerneck -9.55925 -5.82298 -6.61433
upperneck 29.345 -9.70098 8.76298
head 11.9534 -4.10431 3.1185
rclavicle -3.97569e-016 -5.02925e-014
rhumerus -52.366 -30.2378 -56.2636
rradius 20.8256
rwrist 51.1657
rhand 5.19454 -31.2064
rfingers 7.12502
rthumb 30.5555 -778.692
lclavicle -3.97569e-016 -5.02925e-014
lhumerus -46.4918 25.9806 71.1613
lradius 15.3775
lwrist -43.4164
lhand -18.0176 -14.7996
lfingers 7.12502
lthumb 8.2534 15.0192
rfemur -1.45799 23.1497 24.847
rtibia 3.26613
rfoot -17.7409 -25.2232
rtoes -3.84195
lfemur 8.99285 -45.6836 -12.7414
ltibia -5.07805
lfoot -27.0055 54.1251
ltoes 13.4093
2603
root -0.00161743 17.4324 8.51956 7.35992 0.327902 -9.7059
lowerback -2.68632 1.78419 5.62598
upperback -9.60455 2.74098 2.9221
thorax -8.51984 1.06516 -0.171352
lowerneck -9.46002 -5.87967 -6.70428
upperneck 29.2809 -9.78845 8.84414
head 11.9262 -4.14853 3.1534
rclavicle -9.79014e-015 -4.47266e-014
rhumerus -52.3979 -30.3678 -56.269
rradius 20.8488
rwrist 51.2363
rhand 5.25747 -31.1229
rfingers 7.12502
rthumb 30.6155 -778.597
lclavicle -9.79014e-015 -4.47266e-014
lhumerus -46.6077 26.2949 70.7744
lradius 15.2359
lwrist -44.2847
lhand -17.9312 -14.7549
lfingers 7.12502
lthumb 8.33677 15.0606
rfemur -1.40074 22.9417 24.8163
rtibia 3.2311
rfoot -18.0743 -25.0075
rtoes -4.83152
lfemur 9.04874 -45.6442 -12.7392
ltibia -5.13302
lfoot -27.4597 53.9482
ltoes 13.8148
2604
root 0.00402794 17.4315 8.52199 7.32507 0.370534 -9.73886
lowerback -2.73747 1.78792 5.70776
upperback -9.56444 2.74075 2.92019
thorax -8.44261 1.06097 -0.216859
lowerneck -9.28881 -5.9045 -6.75337
upperneck 29.1271 -9.83524 8.9381
head 11.8428 -4.17249 3.19228
rclavicle -8.69683e-015 3.3197e-014
rhumerus -52.4871 -30.5946 -56.2069
rradius 20.8209
rwrist 51.4566
rhand 5.29841 -31.2176
rfingers 7.12502
rthumb 30.6546 -778.684
lclavicle -8.69683e-015 3.3197e-014
lhumerus -46.6257 26.2254 70.7112
lradius 15.2547
lwrist -44.4288
lhand -17.7035 -14.6299
lfingers 7.12502
lthumb 8.55652 15.1767
rfemur -1.28957 22.7458 24.8225
rtibia 3.13801
rfoot -18.2637 -24.8556
rtoes -5.63165
lfemur 9.23379 -45.884 -12.8767
ltibia -5.1178
lfoot -28.2528 53.9457
ltoes 14.3908
2605
root 0.00883212 17.4311 8.52465 7.26892 0.382786 -9.72365
lowerback -2.76406 1.79365 5.72415
upperback -9.51534 2.74305 2.91664
thorax -8.37145 1.06292 -0.228843
lowerneck -9.08606 -5.86614 -6.76693
upperneck 28.9588 -9.79065 9.0167
head 11.735 -4.15429 3.23302
rclavicle 2.42517e-014 -6.95746e-015
rhumerus -52.5326 -30.6949 -56.2597
rradius 20.8242
rwrist 51.5033
rhand 5.26034 -31.3043
rfingers 7.12502
rthumb 30.6183 -778.778
lclavicle 2.42517e-014 -6.95746e-015
lhumerus -46.6374 26.1467 70.7025
lradius 15.3109
lwrist -44.3501
lhand -17.6463 -14.4795
lfingers 7.12502
lthumb 8.61172 15.3249
rfemur -1.14921 22.6532 24.7922
rtibia 3.0606
rfoot -18.5385 -24.7447
rtoes -5.89898
lfemur 9.57804 -46.3542 -13.2236
ltibia -5.09093
lfoot -29.3545 54.1324
ltoes 15.0981
2606
root 0.0118132 17.431 8.52691 7.2371 0.374302 -9.63968
lowerback -2.79925 1.81157 5.62387
upperback -9.4805 2.75883 2.90304
thorax -8.31347 1.07954 -0.187352
lowerneck -8.91134 -5.86692 -6.69181
upperneck 28.8213 -9.77822 8.94481
head 11.6351 -4.15681 3.19683
rclavicle -3.47873e-016 -4.27387e-014
rhumerus -52.5242 -30.6656 -56.4102
rradius 20.8362
rwrist 51.3913
rhand 5.25007 -31.3344
rfingers 7.12502
rthumb 30.6085 -778.81
lclavicle -3.47873e-016 -4.27387e-014
lhumerus -46.6614 26.1717 70.6028
lradius 15.3015
lwrist -44.3596
lhand -17.7952 -14.3341
lfingers 7.12502
lthumb 8.46799 15.4761
rfemur -1.04411 22.6484 24.6795
rtibia 3.01076
rfoot -18.911 -24.6355
rtoes -5.84021
lfemur 9.8945 -46.8198 -13.6172
ltibia -5.10162
lfoot -30.3743 54.3928
ltoes 15.5856
